# xmcd
#
# Track frame offsets:
#   182
#   16845
#   31772
#   47555
#   61375
#   81250
#   95950
#   112712
#   127172
#   143107
#   166947
#   188947
#   205935
#
# Disc length: 3020 seconds
#
# Revision: 1
# Processed by: cddbd v1.5.1PL2 Copyright (c) Steve Scherf et al.
# Submitted via: Media_Universe 3.0
#
DISCID=ad0bca0d
DTITLE=Various Artist - The Apostle
DYEAR=1998
DGENRE=Soundtrack
TTITLE0=Steven Curtis Chapman - I Will Not Go Quietly
TTITLE1=Patty Loveless - Two Coats
TTITLE2=Lyle Lovett - I'm A Soldier In The Army Of The Lord
TTITLE3=Rebecca Lynn Howard - Softly and Tenderly
TTITLE4=Gaither Vocal Band - There Is A River
TTITLE5=Johnny Cash - In The Garden
TTITLE6=Emmylou Harris and Robert Duvall - I Love To Tell The Story
TTITLE7=The Carter Family - Waitin' On The Far Side Banks Of Jordan
TTITLE8=Sounds of Blackness - Victory Is Mine
TTITLE9=Lari White - There Is Power In The Blood
TTITLE10=Russ Taff - There Ain't No Grave (Gonna Hold My Body Down)
TTITLE11=Gary Chapman and Wynonna - I'll Fly Away
TTITLE12=Dino Kartsonakis - Softly and Tenderly (Reprise)
EXTD=Music From and Inspired by the Motion Picture
EXTT0=
EXTT1=
EXTT2=
EXTT3=
EXTT4=
EXTT5=
EXTT6=
EXTT7=
EXTT8=
EXTT9=
EXTT10=
EXTT11=
EXTT12=
PLAYORDER=
